# ProBuilder 5.1.1
# https://unity3d.com/unity/features/worldbuilding/probuilder
# 21/02/2024 18:47:06

mtllib ./WoodTrunkExt.mtl
o WoodTrunkExt

g WoodTrunkExt
v -0.443679 -2.04624 0
v -0.2745217 -2.026859 0.3461982
v -0.4710144 4.247769E-16 0.1761078
v -0.1237183 1.08597E-14 0.4999717
v 0.1001344 -1.842055 0.4164828
v 0.3238548 -4.289356E-15 0.4363355
v 0.3943512 -1.954055 0.1952477
v 0.5346732 -2.275879E-14 0.03311861
v 0.4933895 -1.954055 0.2169418
v 0.3886772 -2 -0.1952476
v 0.3499864 -1.092438E-14 -0.4060483
v 0.1001345 -2 -0.3953086
v -0.09113271 5.89785E-15 -0.5504638
v -0.326147 -2.145097 -0.3542415
v 0.1112605 -1.909365 -0.487464
v -0.3089794 -2.110397 -0.313752
v -0.4565127 -1.401792E-14 -0.2913798
v -0.1385146 3.990819E-15 0.5571489
v -0.2599828 2.000002 0.3940155
v -0.3009312 2.000002 0.03992097
v -0.2340215 2.000002 0.3543268
v 0.3940428 -7.472141E-08 0.4864421
v 0.1528202 1.911381 0.4444918
v 0.1375012 1.953013 0.3997555
v 0.4052039 1.930578 0.141998
v 0.6470215 -5.107378E-08 0.03842314
v 0.4502679 1.958663 0.1580945
v 0.3765203 2.000003 -0.2332136
v 0.4065599 6.813554E-08 -0.4495401
v 0.4120572 2.003852 -0.2495129
v 0.05278348 2.000002 -0.4245418
v -0.5082861 1.52315E-14 -0.3221305
v -0.1023083 1.051741E-14 -0.6100017
v -0.33547 2.042508 -0.3404678
v 0.05868949 2.056999 -0.4713942
v -0.3126562 2.145656 -0.3067082
v -0.5361726 3.699362E-14 0.1973002
v -0.3486235 2.000002 0.04467565
v -0.5000002 -2.012055 0
v -0.3047087 -2.061474 0.380647
v 0.1465143 -1.842056 0.4652293
v 0.4524615 -2.000001 -0.2169418
v -0.5384993 -1.456873 0.09658147
v -0.213301 -1.355269 0.4777242
v -0.4134414 -0.8444337 0.2525349
v -0.4991312 -0.8955144 -0.1719835
v -0.5248569 -1.404845 -0.028337
v -0.5265805 -0.8505492 0.009617091
v -0.4359434 -1.611465 -0.2273517
v 0.2568392 -0.7050406 -0.4480255
v 0.08484371 -0.8606435 -0.52932
v 0.1709071 -1.395362 -0.472753
v 0.3593108 -1.524386 -0.3253451
v 0.3288066 -0.8924019 -0.4040824

vt 0.1957812 -2.023822
vt -0.1895323 -2.004416
vt 0.04980854 0.0249708
vt -0.3940696 0.01654996
vt 0.2179184 -1.998426
vt -0.1630926 -1.813251
vt 0.0452282 0.03251486
vt -0.387201 0.02416094
vt 0.1607272 -1.804852
vt -0.2072802 -1.917204
vt -0.009732982 0.04299927
vt -0.4157175 0.02673997
vt -0.4633649 -1.948752
vt 0.1976189 -1.92061
vt -0.1929034 -1.966676
vt 0.03633787 0.03854591
vt -0.4039333 0.02541716
vt 0.2081617 -1.965522
vt -0.1429528 -1.965522
vt 0.05625405 0.04018505
vt -0.3885401 0.03018484
vt 0.280675 -2.151828
vt -0.1696816 -1.917565
vt 0.1663915 -1.957032
vt -0.2506464 -2.067903
vt 0.004539908 0.05156474
vt -0.3998313 0.0337607
vt 0.1710353 -2.082053
vt -0.1703871 -2.017779
vt 0.09372102 0.03219958
vt -0.3434885 0.02217034
vt 0.2052031 0.009705455
vt 0.3059437 2.006181
vt 0.2243693 -0.04823316
vt -0.2505016 -0.04823316
vt 0.1928593 1.963356
vt -0.07050111 1.943602
vt -0.3319999 0.009606619
vt -0.09766415 1.91939
vt 0.1928649 -0.0380187
vt -0.2592095 -0.0380187
vt 0.2815681 1.968351
vt -0.07986051 1.913767
vt 0.2366209 -0.04541104
vt -0.2183827 -0.04541104
vt 0.2905481 1.916073
vt -0.06190816 1.882798
vt -0.637555 0.002113722
vt -0.4277152 1.962173
vt 0.2377974 -0.04002918
vt -0.2386234 -0.04002918
vt 0.2879736 1.897296
vt -0.06901761 1.956556
vt -0.4581826 -0.007182308
vt -0.4393281 1.999947
vt 0.2062794 -0.03847661
vt -0.2578779 -0.03847661
vt 0.2852711 1.967602
vt -0.08192613 1.961293
vt 0.4653666 -0.006905874
vt 0.02741083 -0.01118486
vt 0.2916029 2.035319
vt -0.1155472 2.048321
vt 0.2440608 -0.04645293
vt -0.2038534 -0.04645292
vt 0.2886223 1.962176
vt -0.07763798 2.096534
vt 0.5561775 0.002365286
vt 0.3514688 1.999711
vt 0.2770853 -0.03101096
vt -0.1906272 -0.03101096
vt 0.2968667 2.119426
vt -0.04923228 1.975593
vt 0.6165723 -0.3036203
vt 0.8091597 0.0815851
vt 0.6824564 -0.3036203
vt 0.8170043 0.05448534
vt 0.2599858 0.3940135
vt 0.3486265 0.04467368
vt 0.2340245 0.3543249
vt 0.3009342 0.039919
vt -1.29719 0.9940305
vt -0.7967668 1.086104
vt -1.253716 0.9565308
vt -0.8368961 1.032136
vt 0.04817652 -0.9420147
vt 0.4679901 -1.009575
vt 0.06777098 -1.001892
vt 0.4421715 -1.041035
vt 0.4913515 0.1432587
vt 0.8531261 -0.1089953
vt 0.4458041 0.0937335
vt 0.7558656 -0.1336481
vt -1.275681 0.6172103
vt -0.9883157 0.9174694
vt -1.222824 0.6003346
vt -0.9931476 0.8880425
vt 0.5395349 0.006993197
vt 0.4997067 -0.4294181
vt 0.4405245 -0.01482738
vt 0.4359403 -0.4080119
vt -0.5216513 -0.4755087
vt -0.5573186 -0.06517492
vt -0.4859564 -0.4591004
vt -0.5107781 -0.07822261
vt 0.610025 0.2342859
vt 0.2626986 -0.0435263
vt 0.5464426 0.2565647
vt 0.2588131 0.06697377
vt -0.1570765 1.89635
vt 0.2580997 1.828871
vt -0.1415297 1.823983
vt 0.2335193 1.807107
vt -0.3525291 0.9189701
vt -0.8338789 1.10048
vt -0.3851865 1.044528
vt -0.8088488 1.110138
vt 0.2053102 1.754287
vt -0.2099883 1.769797
vt 0.194825 1.864694
vt -0.1890485 1.731642
vt -1.28768 -1.163294
vt -1.379562 -0.7571297
vt -1.256326 -1.11687
vt -1.345644 -0.7847619
vt 0.3706816 -0.1752822
vt 0.3579982 -0.5627798
vt 0.3229921 -0.1800659
vt 0.3363244 -0.5406049
vt -0.08888464 -1.833073
vt 0.5462456 -1.456084
vt 0.2697819 -1.346933
vt 0.3487133 -2.054968
vt 0.4410692 -0.8406677
vt 0.4745283 -0.8995557
vt 0.5175219 -1.406278
vt 0.5238456 -0.8513956
vt 0.4962935 -2.012825
vt 0.4050795 -1.616244
vt -0.3093878 -0.7124096
vt -0.1485478 -0.8698261
vt -0.227098 -1.403252
vt -0.3961892 -1.529191
vt -0.3754809 -0.8987924
vt -0.4754741 -2.002576

vn 0.9911501 0.04560063 -0.1246673
vn 0.5137023 0.04941525 -0.8565443
vn 0.9352335 -0.03975307 -0.3517924
vn 0.3976973 -0.01835722 -0.917333
vn -0.302937 0.06591121 -0.9507286
vn -0.4975616 -0.01585433 -0.8672838
vn -0.9373252 0.06733228 -0.3418885
vn -0.9911906 -0.0167454 -0.1313803
vn 0.9935193 -0.02841935 0.1100533
vn -0.8307382 0.06686075 0.5526334
vn -0.7313585 -0.009323699 0.6819295
vn -0.1422005 0.08042672 0.986565
vn 0.06440651 -0.009584811 0.9978777
vn -0.7451532 -0.05974954 -0.6642112
vn 0.1970113 -0.05426494 -0.9788983
vn 0.7094796 0.06703992 0.70153
vn 0.8380386 -0.01474867 0.5454115
vn -0.3524836 0.003730739 0.9358106
vn -0.6585531 0.07693372 0.7485914
vn 0.9569049 -0.06491194 -0.2830536
vn 0.628334 -0.002984741 -0.777938
vn 0.4986691 -0.0005696836 0.8667922
vn 0.2522301 0.07652839 0.9646364
vn -0.3883011 -0.03284616 -0.920947
vn -0.9586598 -0.02573989 -0.283388
vn 0.9871628 -0.0001601021 0.1597175
vn 0.9091504 0.09434223 0.4056416
vn -0.8198035 -0.02398061 0.5721425
vn 0.6565129 -0.02280272 -0.7539701
vn 0.8691682 0.08181376 -0.4877019
vn -0.03993452 -0.0404276 0.9983841
vn -0.8938 -0.00894105 -0.4483767
vn -0.0278992 -0.005688598 -0.9995946
vn -0.7249146 0.0820673 -0.6839327
vn 0.1870222 0.07566623 -0.9794372
vn 0.8105063 -0.05711526 0.5829386
vn -0.9713944 0.01586922 0.2369411
vn -0.9939066 0.09496272 0.05596212
vn -0.5127316 -0.844736 0.1533866
vn 0.04090524 -0.8048522 -0.04714432
vn 0.5945421 -0.7649685 -0.2476752
vn 1.503496E-06 1 9.834729E-07
vn 0.460572 -0.7948437 -0.3950911
vn 0.4614346 -0.7823901 -0.4174768
vn 0.4622971 -0.7699366 -0.4398626
vn 0.07823802 0.743021 0.6646794
vn 0.09710856 0.8666855 0.370272
vn 0.1159791 0.9903501 0.0758647
vn -0.1856641 -0.9666063 0.1766386
vn -0.1326833 -0.9473283 0.2702327
vn -0.07970248 -0.9280505 0.3638268
vn -0.4249217 0.8539556 -0.3003355
vn 0.04786988 0.7802588 0.08945794
vn 0.5206614 0.7065619 0.4792514
vn -0.02354887 -0.9939291 0.1074724
vn 0.007982212 -0.9931846 0.1118346
vn 0.03951329 -0.9924399 0.1161969
vn -0.05463754 0.991852 0.1150839
vn -0.3110626 0.8963212 0.1533182
vn -0.5674877 0.8007904 0.1915526
vn -0.07741167 -0.9706773 -0.2275807
vn 0.1724745 -0.8209485 -0.4183702
vn 0.4223607 -0.6712198 -0.6091596
vn -0.3502726 0.6161751 0.7054341
vn -0.2054104 0.8045348 0.4039387
vn -0.06054818 0.9928944 0.1024431
vn 0.1770202 -0.7123012 -0.679184
vn 0.2474528 -0.7473034 -0.07175499
vn 0.3178854 -0.7823057 0.535674
vn -0.3062856 0.3566178 -0.8826171
vn 0.06963256 0.4485568 -0.08446512
vn 0.4455508 0.5404958 0.7136868
vn 0.406204 -0.7717932 0.4892172
vn -0.05603606 -0.8128319 0.2206559
vn -0.5182761 -0.8538706 -0.04790544
vn 0.01097258 0.9938642 0.1100616
vn -0.4832712 0.5872071 0.1094971
vn -0.9775149 0.1805499 0.1089325
vn 0.3776563 -0.06383648 0.9237427
vn -0.8978268 -0.03411545 0.4390252
vn -0.4136343 -0.03626343 0.9097207
vn -0.6486881 -0.09021288 0.7556887
vn -0.7136218 -0.02690566 0.7000143
vn -0.9701242 -0.03553704 -0.2399921
vn -0.9872848 -0.02746188 -0.1565715
vn -0.994965 -0.006351146 -0.1000221
vn -0.9853519 -0.05954236 -0.1598012
vn -0.9215765 -0.06530625 -0.3826641
vn 0.3852289 -0.04331056 -0.9218042
vn 0.4082634 -0.02121929 -0.9126175
vn 0.5194579 -0.04135948 -0.8534945
vn 0.5904208 -0.06339476 -0.804602
vn 0.4908389 -0.06187231 -0.8690506
vn 0.7229365 -0.05674925 -0.68858

usemtl WoodDark
f 34/62/34 33/61/33 32/60/32
f 34/62/34 35/63/35 33/61/33
f 38/69/38 32/60/32 37/68/37
f 38/69/38 34/62/34 32/60/32
f 19/33/19 37/68/37 18/32/18
f 19/33/19 38/69/38 37/68/37
f 23/39/23 18/32/18 22/38/22
f 23/39/23 19/33/19 18/32/18
f 35/63/35 29/54/29 33/61/33
f 35/63/35 30/55/30 29/54/29
f 30/55/30 26/48/26 29/54/29
f 30/55/30 27/49/27 26/48/26
f 27/49/27 22/38/22 26/48/26
f 27/49/27 23/39/23 22/38/22
f 32/60/32 15/23/15 14/22/14
f 32/60/32 33/61/33 15/23/15
f 47/136/85 37/68/37 48/137/86
f 47/136/85 39/138/87 37/68/37
f 47/136/85 49/139/88 39/138/87
f 46/135/84 47/136/85 48/137/86
f 46/135/84 49/139/88 47/136/85
f 32/60/32 48/137/86 37/68/37
f 32/60/32 46/135/84 48/137/86
f 32/60/32 49/139/88 46/135/84
f 49/139/88 14/22/14 39/138/87
f 32/60/32 14/22/14 49/139/88
f 43/131/80 40/133/82 44/132/81
f 43/131/80 39/138/87 40/133/82
f 37/68/37 43/131/80 45/134/83
f 39/138/87 43/131/80 37/68/37
f 43/131/80 44/132/81 45/134/83
f 45/134/83 44/132/81 18/32/18
f 37/68/37 45/134/83 18/32/18
f 18/32/18 44/132/81 22/38/22
f 44/132/81 41/130/79 22/38/22
f 44/132/81 40/133/82 41/130/79
f 54/144/93 51/141/90 50/140/89
f 54/144/93 52/142/91 51/141/90
f 53/143/92 52/142/91 54/144/93
f 29/54/29 50/140/89 33/61/33
f 50/140/89 51/141/90 33/61/33
f 15/23/15 33/61/33 51/141/90
f 15/23/15 51/141/90 52/142/91
f 53/143/92 15/23/15 52/142/91
f 42/145/94 15/23/15 53/143/92
f 53/143/92 54/144/93 42/145/94
f 54/144/93 29/54/29 42/145/94
f 29/54/29 54/144/93 50/140/89
f 29/54/29 9/13/9 42/145/94
f 29/54/29 26/48/26 9/13/9
f 26/48/26 41/130/79 9/13/9
f 26/48/26 22/38/22 41/130/79
f 4/4/4 2/2/2 1/1/1
f 1/1/1 3/3/3 4/4/4
f 6/8/6 5/6/5 2/5/2
f 2/5/2 4/7/4 6/8/6
f 8/12/8 7/10/7 5/9/5
f 5/9/5 6/11/6 8/12/8
f 11/17/11 10/15/10 7/14/7
f 7/14/7 8/16/8 11/17/11
f 13/21/13 12/19/12 10/18/10
f 10/18/10 11/20/11 13/21/13
f 17/27/17 16/25/16 12/24/12
f 12/24/12 13/26/13 17/27/17
f 3/31/3 1/29/1 16/28/16
f 16/28/16 17/30/17 3/31/3
f 21/37/21 4/35/4 3/34/3
f 3/34/3 20/36/20 21/37/21
f 24/43/24 6/41/6 4/40/4
f 4/40/4 21/42/21 24/43/24
f 25/47/25 8/45/8 6/44/6
f 6/44/6 24/46/24 25/47/25
f 28/53/28 11/51/11 8/50/8
f 8/50/8 25/52/25 28/53/28
f 31/59/31 13/57/13 11/56/11
f 11/56/11 28/58/28 31/59/31
f 36/67/36 17/65/17 13/64/13
f 13/64/13 31/66/31 36/67/36
f 20/73/20 3/71/3 17/70/17
f 17/70/17 36/72/36 20/73/20
f 2/77/41 40/75/40 39/74/39
f 39/74/39 1/76/40 2/77/41
f 20/81/42 38/79/42 19/78/42
f 19/78/42 21/80/42 20/81/42
f 5/85/45 41/83/44 40/82/43
f 40/82/43 2/84/44 5/85/45
f 21/89/48 19/87/47 23/86/46
f 23/86/46 24/88/47 21/89/48
f 7/93/51 9/91/50 41/90/49
f 41/90/49 5/92/50 7/93/51
f 24/97/54 23/95/53 27/94/52
f 27/94/52 25/96/53 24/97/54
f 10/101/57 42/99/56 9/98/55
f 9/98/55 7/100/56 10/101/57
f 25/105/60 27/103/59 30/102/58
f 30/102/58 28/104/59 25/105/60
f 12/109/63 15/107/62 42/106/61
f 42/106/61 10/108/62 12/109/63
f 28/113/66 30/111/65 35/110/64
f 35/110/64 31/112/65 28/113/66
f 16/117/69 14/115/68 15/114/67
f 15/114/67 12/116/68 16/117/69
f 31/121/72 35/119/71 34/118/70
f 34/118/70 36/120/71 31/121/72
f 1/125/75 39/123/74 14/122/73
f 14/122/73 16/124/74 1/125/75
f 36/129/78 34/127/77 38/126/76
f 38/126/76 20/128/77 36/129/78

